<svg xmlns="http://www.w3.org/2000/svg" viewBox="0 0 49.15 47.04"><defs><style>.cls-1{fill:#231f20;}.cls-2{fill:none;}</style></defs><g id="Layer_2" data-name="Layer 2"><g id="Layer_1-2" data-name="Layer 1"><path class="cls-1" d="M23.06,0V3.81l-9.52,0c-3.88,0-9.92,0-9.9,7.48a6.81,6.81,0,0,0,2.72,5.79c1.59,1.18,3.41,1.34,9.52,1.32l7.22,0V22.3l-11,0C9.87,22.34,0,22.36,0,11.1A12.14,12.14,0,0,1,2.12,4C5.05.05,9.66,0,14.18,0l8.88,0Z"/><path class="cls-1" d="M1.1,24.1H4.91l0,9.39c0,3.89,0,9.92,7.49,9.9a6.74,6.74,0,0,0,5.78-2.71c1.19-1.59,1.34-3.42,1.33-9.53V27.79h3.89v7.09c0,2.3,0,12.14-11.23,12.17A12.19,12.19,0,0,1,5,44.92C1.14,42,1.13,37.39,1.12,32.86l0-8.76Z"/><path class="cls-1" d="M35.59,26.48H29.91l0-14.6h3.38c6.11,0,7.94.14,9.53,1.33A6.74,6.74,0,0,1,45.49,19c0,7.46-6,7.48-9.9,7.49ZM37,8,26,8h-.1v.2L26,34.47l3.94,0V30.3h5c4.52,0,9.12,0,12.05-3.92a12.27,12.27,0,0,0,2.13-7.15C49.12,8,39.27,8,37,8Z"/><rect class="cls-2" x="0.01" width="49.14" height="47.04"/></g></g></svg>