<svg xmlns="http://www.w3.org/2000/svg" viewBox="0 0 201.29 36.35"><g id="Layer_2" data-name="Layer 2"><g id="Layer_1-2" data-name="Layer 1"><path d="M104.9,1.77h.3c.2,0,.3,0,.3-.2s-.2-.2-.3-.2h-.3Zm-.3-.7h.6c.4,0,.6.1.6.5a.37.37,0,0,1-.33.4h-.07l.4.7h-.3l-.4-.7h-.2v.7h-.3Zm.5,2A1.12,1.12,0,0,0,106.2,2a1.05,1.05,0,0,0-1-1.1h-.1a1.1,1.1,0,1,0,0,2.2Zm0-2.6a1.45,1.45,0,0,1,1.5,1.4,1.5,1.5,0,1,1-3,0A1.6,1.6,0,0,1,105.1.47ZM77.7.47,71,7.17V2.67L68.8.47H59.9l-2.2,2.2v4.5l-4.4,4.4-4.4-4.4V2.67L46.7.47h-9l-2.2,2.2L33.3.47H24.4l-2.2,2.2v8.9L11.1.47H2.2L0,2.67v31.2l2.2,2.2h8.9l2.2-2.2V25l11,11.1h8.9l2.2-2.2V16.07l11.1,11.1v6.7l2.2,2.2h8.9l2.2-2.2v-6.7L71,16.07v13.3l6.7,6.7H99.9l6.7-6.7v-6.7l-2.2-2.2H93.3v2.2H84.4v-8.9h8.9V16h11.1l2.2-2.2V7.07L99.9.37Z"/><path d="M126.08,6.21c-.23-1.66-1.52-2.53-3.31-2.53C120,3.68,119,6.12,119,8.56s1.06,4.87,3.82,4.87a3.05,3.05,0,0,0,3.3-2.77c0-.09,0-.18,0-.27h4.27c-.22,4.23-3.33,6.72-7.5,6.72-5,0-8.18-3.8-8.18-8.55S117.89,0,122.86,0c3.54,0,7.38,2.25,7.5,6.21Z"/><path d="M143.9,16.76h-3.8V15.13h0a4.38,4.38,0,0,1-3.63,2c-3.43,0-4.41-2-4.41-5.1V4.83h3.91v6.92c0,1.59.68,2.14,1.93,2.14.85,0,2.14-.55,2.14-2.67V4.83h3.91Z"/><path d="M146.15.35h3.91V16.76h-3.91Z"/><path d="M159.4,7.36H157v5.42c0,1,.55,1.16,1.4,1.16.32,0,.66,0,1,0v2.87c-.72,0-1.43.12-2.14.12-3.34,0-4.19-1-4.19-4.21V7.36h-2V4.83h2V1.22H157V4.83h2.41Z"/><path d="M172.58,16.76h-3.8V15.13h0a4.41,4.41,0,0,1-3.64,2c-3.42,0-4.41-2-4.41-5.1V4.83h3.91v6.92c0,1.59.69,2.14,1.93,2.14.85,0,2.14-.55,2.14-2.67V4.83h3.91Z"/><path d="M174.83,4.83h3.79V6.92h0a3.6,3.6,0,0,1,3.59-2.32,4.78,4.78,0,0,1,.92.09V8.26a5.15,5.15,0,0,0-1.5-.23,2.74,2.74,0,0,0-2.94,2.53c0,.1,0,.2,0,.29v5.91h-3.91Z"/><path d="M184,8.51a3.65,3.65,0,0,1,1.86-3.2,7.92,7.92,0,0,1,3.79-.83c2.83,0,5.57.62,5.57,4V13.7a7,7,0,0,0,.46,3.06H191.7a4.72,4.72,0,0,1-.23-1.13,5.33,5.33,0,0,1-3.93,1.47c-2.28,0-4.07-1.14-4.07-3.61,0-3.88,4.23-3.58,6.94-4.13.67-.14,1-.37,1-1.1,0-.9-1.08-1.25-1.89-1.25a1.75,1.75,0,0,0-1.95,1.5ZM189,14.69c1.86,0,2.48-1,2.39-3.51a11.22,11.22,0,0,1-2.42.64c-.87.21-1.6.57-1.6,1.52s.75,1.35,1.63,1.35Z"/><path d="M197.38.35h3.91V16.76h-3.91Z"/><path d="M119.64,19.58H124L130.12,36h-4.46l-1-2.94h-5.72l-1,2.94H113.5Zm.28,10.31h3.72l-1.81-5.75h0Z"/><path d="M131.36,26.6h-1.89V24.07h1.89c0-3.43,1.2-4.49,4.53-4.49.62,0,1.26.05,1.88.07v2.76a9.26,9.26,0,0,0-1.05-.07c-.9,0-1.45.12-1.45,1.2v.53h2.34V26.6h-2.34V36h-3.91Z"/><path d="M139.87,26.6H138V24.07h1.88c0-3.43,1.2-4.49,4.53-4.49.62,0,1.27.05,1.89.07v2.76a9.43,9.43,0,0,0-1.06-.07c-.9,0-1.45.12-1.45,1.2v.53h2.35V26.6h-2.35V36h-3.91Z"/><path d="M146.88,27.75a3.63,3.63,0,0,1,1.86-3.2,7.78,7.78,0,0,1,3.79-.83c2.83,0,5.56.62,5.56,4v5.22a7,7,0,0,0,.47,3.06h-3.94a4.83,4.83,0,0,1-.23-1.13,5.34,5.34,0,0,1-3.93,1.47c-2.28,0-4.07-1.15-4.07-3.61,0-3.88,4.23-3.58,6.94-4.14.67-.13,1-.36,1-1.09,0-.91-1.08-1.25-1.89-1.25a1.75,1.75,0,0,0-1.95,1.5Zm5.05,6.18c1.87,0,2.49-1,2.4-3.52a10.69,10.69,0,0,1-2.42.65c-.87.21-1.61.57-1.61,1.52S151.06,33.93,151.93,33.93Z"/><path d="M164.21,22.57H160.3v-3h3.91Zm-3.91,1.5h3.91V36H160.3Z"/><path d="M166.49,24.07h3.8v2.09h0a3.59,3.59,0,0,1,3.59-2.32,4.7,4.7,0,0,1,.92.09V27.5a5.38,5.38,0,0,0-1.49-.23,2.75,2.75,0,0,0-2.94,2.54,2.71,2.71,0,0,0,0,.29V36h-3.91Z"/><path d="M179,32.07a1.62,1.62,0,0,0,.65,1.33,2.39,2.39,0,0,0,1.45.42c.75,0,1.84-.32,1.84-1.27s-1.22-1.1-1.91-1.26c-2.46-.62-5.55-.69-5.55-3.91,0-2.88,3.1-3.66,5.45-3.66,2.62,0,5.36.76,5.5,3.87h-3.61a1.12,1.12,0,0,0-.5-1,2.35,2.35,0,0,0-1.24-.3c-.65,0-1.68.07-1.68.9,0,1.13,2.62,1.34,4.41,1.73a3.39,3.39,0,0,1,3,3.22c0,3.2-3,4.25-5.73,4.25s-5.73-.94-5.84-4.28Z"/></g></g></svg>