<svg xmlns="http://www.w3.org/2000/svg" viewBox="0 0 201.29 36.35"><g id="Layer_2" data-name="Layer 2"><g id="Layer_1-2" data-name="Layer 1"><path d="M105.1.47a1.6,1.6,0,0,0-1.5,1.4,1.5,1.5,0,1,0,3,0A1.45,1.45,0,0,0,105.1.47Zm0,2.6a1.1,1.1,0,1,1,0-2.2h.1a1.05,1.05,0,0,1,1,1.1A1.12,1.12,0,0,1,105.1,3.07Z"/><polygon points="77.7 0.47 71 7.17 71 2.67 68.8 0.47 59.9 0.47 57.7 2.67 57.7 7.17 53.3 11.57 48.9 7.17 48.9 2.67 46.7 0.47 37.7 0.47 35.5 2.67 33.3 0.47 24.4 0.47 22.2 2.67 22.2 11.57 11.1 0.47 2.2 0.47 0 2.67 0 33.87 2.2 36.07 11.1 36.07 13.3 33.87 13.3 24.97 24.3 36.07 33.2 36.07 35.4 33.87 35.4 16.07 46.5 27.17 46.5 33.87 48.7 36.07 57.6 36.07 59.8 33.87 59.8 27.17 71 16.07 71 29.37 77.7 36.07 99.9 36.07 106.6 29.37 106.6 22.67 104.4 20.47 93.3 20.47 93.3 22.67 84.4 22.67 84.4 13.77 93.3 13.77 93.3 15.97 104.4 15.97 106.6 13.77 106.6 7.07 99.9 0.37 77.7 0.47"/><path d="M105.8,1.57c0-.4-.2-.5-.6-.5h-.6v1.6h.3V2h.2l.4.7h.3l-.4-.7h.07A.37.37,0,0,0,105.8,1.57Zm-.6.2h-.3v-.4h.3c.1,0,.3,0,.3.2S105.4,1.77,105.2,1.77Z"/><path d="M122.85,17.11c4.17,0,7.28-2.49,7.5-6.71h-4.27c0,.08,0,.17,0,.26a3.05,3.05,0,0,1-3.3,2.77C120,13.43,119,11,119,8.55s1.06-4.87,3.82-4.87c1.79,0,3.08.87,3.31,2.53h4.28c-.12-4-4-6.21-7.5-6.21-5,0-8.19,3.8-8.19,8.55S117.89,17.11,122.85,17.11Z"/><path d="M136.42,17.11a4.38,4.38,0,0,0,3.63-2h0v1.63h3.8V4.83H140v6.39c0,2.12-1.29,2.67-2.14,2.67-1.25,0-1.94-.55-1.94-2.14V4.83H132V12C132,15.13,133,17.11,136.42,17.11Z"/><rect x="146.15" y="0.35" width="3.91" height="16.42"/><path d="M157,1.22h-3.91V4.83h-2V7.36h2v5.31c0,3.24.85,4.21,4.19,4.21.71,0,1.42-.09,2.14-.12V13.89c-.35,0-.69,0-1,0-.85,0-1.4-.2-1.4-1.14V7.36h2.41V4.83H157Z"/><path d="M168.74,15.13h0v1.63h3.8V4.83h-3.91v6.39c0,2.12-1.29,2.67-2.14,2.67-1.24,0-1.93-.55-1.93-2.14V4.83h-3.91V12c0,3.12,1,5.1,4.41,5.1A4.41,4.41,0,0,0,168.74,15.13Z"/><path d="M178.73,10.85c0-.09,0-.19,0-.29A2.74,2.74,0,0,1,181.68,8a5.15,5.15,0,0,1,1.5.23V4.69a4.78,4.78,0,0,0-.92-.09,3.6,3.6,0,0,0-3.59,2.32h0V4.83h-3.79V16.76h3.91Z"/><path d="M195.17,13.7V8.48c0-3.38-2.74-4-5.57-4a7.92,7.92,0,0,0-3.79.83A3.65,3.65,0,0,0,184,8.51h3.66A1.75,1.75,0,0,1,189.56,7c.81,0,1.89.35,1.89,1.25,0,.73-.37,1-1,1.1-2.71.55-6.94.25-6.94,4.13,0,2.47,1.79,3.62,4.07,3.62a5.38,5.38,0,0,0,3.93-1.48,4.72,4.72,0,0,0,.23,1.13h3.93A7,7,0,0,1,195.17,13.7Zm-6.16,1h0c-.88,0-1.64-.39-1.63-1.35s.73-1.31,1.6-1.52a11.22,11.22,0,0,0,2.42-.64C191.49,13.64,190.87,14.7,189,14.7Z"/><rect x="197.38" y="0.35" width="3.91" height="16.42"/><path d="M119.64,19.59,113.5,36h4.39l1-2.94h5.72l1,2.94h4.46L124,19.59Zm.27,10.3,1.87-5.75h0l1.81,5.75Z"/><path d="M131.36,24.07h-1.89V26.6h1.89V36h3.91V26.6h2.34V24.07h-2.34v-.53c0-1.08.55-1.2,1.45-1.2a9.26,9.26,0,0,1,1.05.07V19.65c-.62,0-1.26-.06-1.88-.06C132.56,19.59,131.36,20.64,131.36,24.07Z"/><path d="M139.87,24.07H138V26.6h1.88V36h3.91V26.6h2.35V24.07h-2.35v-.53c0-1.08.55-1.2,1.45-1.2a9.43,9.43,0,0,1,1.06.07V19.65c-.62,0-1.27-.06-1.89-.06C141.07,19.59,139.87,20.64,139.87,24.07Z"/><path d="M158.09,32.94V27.72c0-3.38-2.73-4-5.56-4a7.78,7.78,0,0,0-3.79.83,3.63,3.63,0,0,0-1.86,3.2h3.65a1.75,1.75,0,0,1,1.95-1.5c.81,0,1.89.35,1.89,1.24s-.37,1-1,1.11c-2.72.55-7,.25-7,4.13,0,2.47,1.79,3.61,4.07,3.61a5.34,5.34,0,0,0,3.93-1.47,4.83,4.83,0,0,0,.23,1.13h3.93A7.09,7.09,0,0,1,158.09,32.94Zm-6.16,1c-.87,0-1.63-.39-1.63-1.35s.74-1.31,1.61-1.52a11.22,11.22,0,0,0,2.42-.64C154.42,32.88,153.8,33.93,151.93,33.93Z"/><rect x="160.3" y="24.07" width="3.91" height="11.93"/><rect x="160.3" y="19.59" width="3.91" height="2.99"/><path d="M170.33,26.16h0V24.07h-3.8V36h3.91V30.1a2.71,2.71,0,0,1,0-.29,2.75,2.75,0,0,1,2.94-2.54,5.38,5.38,0,0,1,1.49.23V23.93a4.7,4.7,0,0,0-.92-.09A3.59,3.59,0,0,0,170.33,26.16Z"/><path d="M183.78,28.88c-1.79-.39-4.41-.6-4.41-1.73,0-.83,1-.9,1.68-.9a2.35,2.35,0,0,1,1.24.3,1.12,1.12,0,0,1,.5,1h3.61c-.14-3.11-2.87-3.87-5.5-3.87-2.35,0-5.45.79-5.45,3.66,0,3.22,3.09,3.29,5.55,3.91.69.16,1.91.34,1.91,1.26s-1.09,1.27-1.84,1.27a2.39,2.39,0,0,1-1.45-.42,1.62,1.62,0,0,1-.65-1.33h-3.72c.11,3.34,3,4.28,5.84,4.28s5.73-1.05,5.73-4.25A3.39,3.39,0,0,0,183.78,28.88Z"/></g></g></svg>